<?xml version="1.0" encoding="UTF-8"?>
<!DOCTYPE svg PUBLIC "-//W3C//DTD SVG 1.1//EN" "http://www.w3.org/Graphics/SVG/1.1/DTD/svg11.dtd">
<!-- Creator: CorelDRAW X8 -->
<svg xmlns="http://www.w3.org/2000/svg" xml:space="preserve" width="200px" height="69px" version="1.1" style="shape-rendering:geometricPrecision; text-rendering:geometricPrecision; image-rendering:optimizeQuality; fill-rule:evenodd; clip-rule:evenodd"
viewBox="0 0 8413747 2900098"
 xmlns:xlink="http://www.w3.org/1999/xlink">
 <defs>
  <style type="text/css">
   <![CDATA[
    .fil0 {fill:#2B2A29;fill-rule:nonzero}
   ]]>
  </style>
 </defs>
 <g id="Слой_x0020_1">
  <metadata id="CorelCorpID_0Corel-Layer"/>
  <path class="fil0" d="M6043145 356364c49598,0 91872,-17570 127060,-52694 33049,-35076 49534,-76392 49534,-123964 0,-51625 -16485,-93962 -49534,-127060 -35188,-35076 -77462,-52646 -127060,-52646 -49599,0 -93005,17570 -130156,52646 -35140,33098 -52694,75435 -52694,127060 0,47572 17554,88888 52694,123964 37151,35124 80557,52694 130156,52694z"/>
  <path class="fil0" d="M2270081 1028304c-117772,0 -223160,21671 -316117,65077 -92941,43407 -168376,88840 -226193,136348 -31023,26858 -57881,50668 -80621,71270 -20666,22804 -35140,40310 -43359,52694 -55790,-103298 -133252,-183855 -232448,-241736 -99133,-55790 -215900,-83653 -350173,-83653 -167306,0 -300558,34118 -399755,102292 -101223,68174 -168391,121874 -201441,161115l0 -241736 0 -3096 0 -3096c-2075,-103250 -22741,-180711 -61982,-232400 -41316,-51625 -84499,-77398 -142539,-86749 0,0 -24991,-4229 -37885,-4229 -98080,0 -177568,79504 -177568,177567 0,98016 79488,177504 177568,177504 16437,0 32028,-2984 47172,-7149l0 59109 0 3160 0 1713680c0,14522 4102,27927 12448,40311 8218,10356 20602,15479 37151,15479l89909 0c18575,0 32985,-5123 43342,-15479 8219,-10294 12384,-23699 12384,-40311l0 -1317069c4117,-6144 13453,-18575 27927,-37151 14410,-18591 34055,-40262 58886,-65077 47460,-45434 111532,-90867 192090,-136364 82648,-45433 182850,-68174 300622,-68174 165232,0 292292,52695 381195,158035 88776,105389 133252,260312 133252,464833l0 1000967c0,16612 5123,30017 15479,40311 10310,10356 22693,15479 37167,15479l83701 0c16501,0 30975,-5123 43359,-15479 10293,-12384 15480,-25789 15480,-40311l0 -1000967c0,-59892 -3096,-116703 -9288,-170403 -6192,-53715 -16549,-103314 -30959,-148795 10293,-12383 24767,-28884 43390,-49550 18592,-20602 41269,-43391 68190,-68174 49535,-43406 113543,-85728 192138,-127060 80557,-39241 174520,-58886 281999,-58886 167306,0 294366,52695 381131,158035 86797,105389 130156,260312 130156,464833l0 1000967c0,16612 5122,30017 15527,40311 10309,10356 21688,15479 34071,15479l89845 0c14474,0 27927,-5123 40311,-15479 10309,-12384 15479,-25789 15479,-40311l0 -1000967c0,-249891 -54720,-448236 -164210,-595005 -109554,-146656 -285095,-220000 -526831,-220000z"/>
  <path class="fil0" d="M3464846 1858836c12383,-181796 79488,-335698 201425,-461753 121889,-123963 279908,-185945 474136,-185945 200341,0 352231,65077 455545,195233 103250,128129 154923,278903 154923,452465l-1286029 0zm675561 -824309c-175589,0 -327480,40247 -455561,120820 -130155,80606 -230373,187016 -300574,319198 -39289,70264 -68174,146704 -86749,229352 -20714,82648 -31023,168392 -31023,257232 0,260263 78483,481397 235544,663114 154939,183935 367679,275855 638363,275855 132167,0 257200,-21719 374972,-65126 117788,-43358 202447,-86749 254072,-130155 49598,-37167 81642,-77478 96101,-120821 12782,-36416 12782,-82312 12782,-84834 0,-99595 -80781,-180376 -180376,-180376 -99644,0 -180377,80781 -180377,180376 0,46104 17794,87755 46279,119623 -5681,3894 -11043,7772 -17506,11714 -8282,4165 -18575,9288 -30975,15479 -10357,4165 -20650,8283 -31007,12384 -10357,4165 -20666,8282 -30975,12384 -6192,2090 -34103,12383 -34103,12383 -39241,10373 -80573,19709 -123916,27927 -45497,6192 -91999,9288 -139427,9288 -200420,0 -363689,-69179 -489680,-207617 -128129,-138375 -196303,-302665 -204521,-492712l1419345 0c32986,0 51561,-20666 55726,-62046 6256,-39177 9352,-76392 9352,-111516 0,-235561 -75499,-429725 -226257,-582621 -152960,-152849 -346055,-229305 -579509,-229305z"/>
  <path class="fil0" d="M5400074 1858836c12400,-181796 79504,-335698 201441,-461753 121874,-123963 279909,-185945 474137,-185945 200356,0 352247,65077 455561,195233 103234,128129 154923,278903 154923,452465l-1286062 0zm675578 -824309c-175589,0 -327480,40247 -455561,120820 -130156,80606 -230374,187016 -300574,319198 -39290,70264 -68174,146704 -86750,229352 -20713,82648 -31022,168392 -31022,257232 0,260263 78482,481397 235544,663114 154939,183935 367678,275855 638363,275855 132182,0 257215,-21719 374987,-65126 117773,-43358 202447,-86749 254072,-130155 49599,-37167 81627,-77478 96101,-120821 12783,-36416 12783,-82312 12783,-84834 0,-99595 -80797,-180376 -180377,-180376 -99643,0 -180376,80781 -180376,180376 0,46104 17793,87755 46279,119623 -5697,3894 -11043,7772 -17507,11714 -8282,4165 -18591,9288 -30975,15479 -10356,4165 -20650,8283 -31022,12384 -10357,4165 -20650,8282 -30960,12384 -6191,2090 -34118,12383 -34118,12383 -39242,10373 -80558,19709 -123900,27927 -45497,6192 -92000,9288 -139460,9288 -200404,0 -363673,-69179 -489664,-207617 -128129,-138375 -196318,-302665 -204537,-492712l1419377 0c32986,0 51562,-20666 55727,-62046 6255,-39177 9351,-76392 9351,-111516 0,-235561 -75498,-429725 -226256,-582621 -152960,-152849 -346072,-229305 -579525,-229305z"/>
  <path class="fil0" d="M8233355 2318786c-99660,0 -180377,80781 -180377,180376 0,54498 24656,102787 62876,135837 -37773,20379 -106793,41891 -151492,54386 -51625,12383 -101223,18575 -148683,18575 -248614,0 -313580,-220064 -313580,-325389l0 -1174529 616675 0c18592,0 33050,-5123 43407,-15496 10309,-10293 15495,-24815 15495,-43390l0 -58902c0,-14411 -5186,-27864 -15495,-40247 -10357,-10293 -24815,-15480 -43407,-15480l-616675 0 0 -446273c0,-19581 -11762,-34055 -18576,-40311 -6814,-6191 -25725,-13899 -40422,-13277 -14634,623 -57705,-1133 -74254,894 -16549,0 -29954,5186 -40311,15479 -12383,10373 -18575,24831 -18575,43407l0 440081 -233980 0c-16549,0 -28933,3096 -37199,9288 -10373,8282 -15496,19645 -15496,34055l0 71286c0,18575 3160,33097 9304,43390 6192,10373 20602,15496 43391,15496l233980 0 0 1190009c0,212181 143385,502047 480887,502047 64008,0 123964,-6240 179754,-18623 55742,-12384 106346,-26858 151843,-43359 121873,-43406 203452,-97106 244784,-161179 31007,-45433 46773,-113830 46502,-177775 0,-99595 -80733,-180376 -180376,-180376z"/>
 </g>
</svg>
